<?xml version="1.0" encoding="utf-8"?>
<!-- Generator: Adobe Illustrator 18.1.1, SVG Export Plug-In . SVG Version: 6.00 Build 0)  -->
<svg version="1.1" id="Capa_1" xmlns="http://www.w3.org/2000/svg" xmlns:xlink="http://www.w3.org/1999/xlink" x="0px" y="0px"
	 viewBox="0 0 30 30" enable-background="new 0 0 30 30" xml:space="preserve">
<g id="j7MPDK_1_">
	
		<image overflow="visible" width="800" height="600" id="j7MPDK_2_" xlink:href="B0840AA947F451BB.jpg"  transform="matrix(4.489659e-11 1 -1 4.489659e-11 -203.974 -509.4938)">
	</image>
</g>
<linearGradient id="SVGID_1_" gradientUnits="userSpaceOnUse" x1="1.7192" y1="15.9567" x2="23.1296" y2="15.9567">
	<stop  offset="0" style="stop-color:#589331"/>
	<stop  offset="0.4176" style="stop-color:#71B62D"/>
</linearGradient>
<path opacity="0.7" fill="url(#SVGID_1_)" d="M10.5,22L2.5,14c-1.1-1.1-1.1-2.9,0-3.9s3.3-0.9,3.3-0.9c1.2,0,11.7,0,13.6,0
	c0,0,1.7-0.1,2.8,0.9c1.1,1.1,1.1,2.8,0,3.9L14.4,22C13.3,23,11.5,23,10.5,22z"/>
<linearGradient id="SVGID_2_" gradientUnits="userSpaceOnUse" x1="7.3861" y1="15.9567" x2="28.7965" y2="15.9567">
	<stop  offset="0" style="stop-color:#589331"/>
	<stop  offset="0.4176" style="stop-color:#71B62D"/>
</linearGradient>
<path opacity="0.7" fill="url(#SVGID_2_)" d="M16.1,22L8.2,14c-1.1-1.1-1.1-2.9,0-3.9s3.3-0.9,3.3-0.9c1.2,0,11.7,0,13.6,0
	c0,0,1.7-0.1,2.8,0.9c1.1,1.1,1.1,2.8,0,3.9L20.1,22C19,23,17.2,23,16.1,22z"/>
</svg>
